<svg id="Layer_4" data-name="Layer 4" xmlns="http://www.w3.org/2000/svg" viewBox="0 0 589.09 600"><defs><style>.cls-1{fill:#50f096;}.cls-2{fill:#ff3250;}.cls-3{fill:#fff;}.cls-4{fill:#280096;}</style></defs><path class="cls-1" d="M24.59,204.87l19.29,16.66L34,245a4.68,4.68,0,0,0,3.93,6.48,4.6,4.6,0,0,0,2.82-.66l21.81-13.21,19.3,16.67a4.69,4.69,0,0,0,7.63-4.62l-5.83-24.83,21.82-13.2a4.69,4.69,0,0,0-2-8.68L78,200.85,72.21,176a4.69,4.69,0,0,0-8.89-.75l-9.88,23.51L28,196.65a4.68,4.68,0,0,0-3.44,8.22Zm17,2.33,14.43,1.22a4.71,4.71,0,0,0,4.72-2.86l5.61-13.35,3.3,14.1a4.67,4.67,0,0,0,4.17,3.6l14.42,1.21-12.38,7.5a4.68,4.68,0,0,0-2.13,5.08l3.3,14.09-11-9.46a4.75,4.75,0,0,0-5.5-.46l-12.38,7.5L53.84,222a4.69,4.69,0,0,0-1.26-5.37ZM244.2,119.41a4.69,4.69,0,0,0-2-8.68l-25.4-2.13-5.83-24.84a4.69,4.69,0,0,0-8.88-.74l-9.89,23.51-25.4-2.14a4.69,4.69,0,0,0-3.46,8.22l19.3,16.66-9.89,23.51a4.68,4.68,0,0,0,6.75,5.82l21.81-13.2,19.3,16.66a4.69,4.69,0,0,0,7.63-4.62l-5.82-24.83ZM227,118.86l-12.38,7.49a4.69,4.69,0,0,0-2.14,5.08l3.31,14.1-10.95-9.46a4.71,4.71,0,0,0-5.5-.46L187,143.11l5.61-13.35a4.69,4.69,0,0,0-1.26-5.37l-11-9.45,14.42,1.21a4.68,4.68,0,0,0,4.71-2.85L205.09,100l3.31,14.1a4.68,4.68,0,0,0,4.17,3.6Z"/><path class="cls-2" d="M492.44,300.49l-5.82,24.83a4.69,4.69,0,0,0,7.63,4.62l19.29-16.66,21.81,13.2a4.69,4.69,0,0,0,6.76-5.83l-9.89-23.5,19.3-16.66a4.69,4.69,0,0,0-3.45-8.22l-25.4,2.13-9.89-23.51a4.69,4.69,0,0,0-8.89.74l-5.82,24.84-25.4,2.13a4.68,4.68,0,0,0-2,8.68Zm9.81-15a4.68,4.68,0,0,0,4.17-3.61l3.31-14.09,5.61,13.35a4.68,4.68,0,0,0,4.71,2.85l14.42-1.21-11,9.45a4.67,4.67,0,0,0-1.26,5.36L527.87,311l-12.38-7.5a4.66,4.66,0,0,0-2.82-.66A4.74,4.74,0,0,0,510,304L499,313.41l3.3-14.1a4.68,4.68,0,0,0-2.13-5.08l-12.38-7.49Zm59.22,93a4.69,4.69,0,0,0-4.71-2.85l-25.41,2.14-9.88-23.51a4.69,4.69,0,0,0-8.89.75l-5.82,24.82L481.35,382a4.69,4.69,0,0,0-2,8.68l21.82,13.2-5.83,24.83a4.69,4.69,0,0,0,7.63,4.62l19.3-16.67L544,429.85a4.69,4.69,0,0,0,5.49-.46,4.67,4.67,0,0,0,1.26-5.36l-9.88-23.51,19.29-16.66A4.67,4.67,0,0,0,561.47,378.49Zm-29.26,17.16A4.69,4.69,0,0,0,531,401l5.61,13.34-12.38-7.5a4.73,4.73,0,0,0-2.82-.65,4.67,4.67,0,0,0-2.68,1.12l-10.95,9.45,3.3-14.09a4.68,4.68,0,0,0-2.13-5.08l-12.38-7.5,14.42-1.21a4.67,4.67,0,0,0,4.17-3.6l3.31-14.1,5.6,13.35a4.71,4.71,0,0,0,4.72,2.86l14.43-1.22Zm-169.8-84-5.82,24.83a4.69,4.69,0,0,0,7.63,4.62l19.3-16.66,21.81,13.2a4.66,4.66,0,0,0,2.82.67,4.7,4.7,0,0,0,3.93-6.49l-9.89-23.51,19.3-16.66a4.69,4.69,0,0,0-3.46-8.22l-25.4,2.14L382.74,262a4.69,4.69,0,0,0-8.88.74L368,287.59l-25.41,2.13a4.69,4.69,0,0,0-2,8.68Zm9.81-15a4.68,4.68,0,0,0,4.17-3.6l3.31-14.1,5.61,13.35a4.68,4.68,0,0,0,4.71,2.85l14.42-1.21-10.95,9.45a4.69,4.69,0,0,0-1.26,5.37l5.61,13.35-12.38-7.5a4.69,4.69,0,0,0-5.49.46l-11,9.46,3.31-14.1a4.69,4.69,0,0,0-2.14-5.08l-12.38-7.49Z"/><path class="cls-1" d="M114.16,108.29a4.68,4.68,0,0,0-2-8.68l-25.4-2.13L80.9,72.64A4.69,4.69,0,0,0,72,71.9L62.12,95.41l-25.4-2.13a4.69,4.69,0,0,0-3.45,8.22l19.3,16.66-9.89,23.5A4.7,4.7,0,0,0,43.94,147a4.71,4.71,0,0,0,5.5.46l21.81-13.2L90.54,151a4.69,4.69,0,0,0,7.63-4.62L92.35,121.5Z"/><path class="cls-3" d="M97,107.75l-12.38,7.49a4.68,4.68,0,0,0-2.13,5.08l3.31,14.1L74.8,125a4.74,4.74,0,0,0-2.68-1.12,4.66,4.66,0,0,0-2.82.66L56.92,132l5.61-13.36a4.67,4.67,0,0,0-1.26-5.36l-11-9.45L64.74,105a4.7,4.7,0,0,0,4.72-2.85l5.61-13.35,3.3,14.09a4.68,4.68,0,0,0,4.17,3.61Z"/><path class="cls-4" d="M115.37,137.08a4.69,4.69,0,0,1,5.35-7.7c1.17.81,117.41,82.81,162.06,222.91a4.68,4.68,0,0,1-3,5.89,4.76,4.76,0,0,1-1.82.21,4.7,4.7,0,0,1-4.07-3.25C230.19,218.16,116.52,137.88,115.37,137.08Z"/><path class="cls-4" d="M109.81,231.34c3,.25,72.92,7.06,136.85,93.08a4.69,4.69,0,1,1-7.52,5.59C177.9,247.61,109.7,240.74,109,240.69a4.69,4.69,0,0,1,.8-9.35Z"/><path class="cls-4" d="M275.73,287.45a5,5,0,0,1-1.27.07,4.7,4.7,0,0,1-4.21-3.8c-15.58-82.3-36.33-103.8-36.73-104.21a4.69,4.69,0,0,1,6.48-6.77c.93.89,23.08,22.69,39.46,109.24A4.67,4.67,0,0,1,275.73,287.45Z"/><path class="cls-4" d="M310.94,534.13a4.68,4.68,0,0,1-4.07,3.25,4.76,4.76,0,0,1-1.82-.21,4.68,4.68,0,0,1-3-5.89c44.65-140.1,160.89-222.1,162.06-222.91a4.69,4.69,0,0,1,5.35,7.7C468.27,316.87,354.6,397.15,310.94,534.13Z"/><path class="cls-4" d="M480,414.6a4.69,4.69,0,0,1-4.26,5.08c-.69.05-68.89,6.92-130.13,89.32a4.69,4.69,0,1,1-7.52-5.59c63.93-86,133.9-92.83,136.85-93.08A4.69,4.69,0,0,1,480,414.6Z"/><path class="cls-4" d="M305.33,461c16.38-86.55,38.53-108.35,39.46-109.24a4.69,4.69,0,0,1,6.48,6.77c-.4.41-21.15,21.91-36.73,104.21a4.7,4.7,0,0,1-4.21,3.8,5,5,0,0,1-1.27-.07A4.68,4.68,0,0,1,305.33,461Z"/></svg>