<svg id="Layer_4" data-name="Layer 4" xmlns="http://www.w3.org/2000/svg" viewBox="0 0 400 400"><defs><style>.cls-1{fill:#ff3250;}.cls-2{fill:#280096;}.cls-3{fill:none;stroke:#280096;stroke-linecap:round;stroke-linejoin:round;stroke-width:7px;}</style></defs><polygon class="cls-1" points="267.4 44.34 157.35 44.34 109.17 214.34 315.59 214.34 267.4 44.34"/><path class="cls-2" d="M126.31,235.7l-.07,27.08a8,8,0,0,0,8.23,7.71h0a8,8,0,0,0,8.27-7.69l.08-27.07Z"/><rect class="cls-2" x="127.63" y="280.75" width="119.92" height="29.86" transform="translate(-108.38 482.79) rotate(-89.91)"/><polygon class="cls-3" points="242.65 65.72 132.6 65.72 84.41 235.72 290.83 235.72 242.65 65.72"/><rect class="cls-2" x="172.74" y="270.66" width="29.77" height="139.96" rx="14.89" transform="translate(-153.33 527.71) rotate(-89.91)"/><rect class="cls-2" x="172.69" y="1.12" width="29.86" height="419.14" transform="translate(-94.02 194.25) rotate(-44.97)"/></svg>