<svg id="Layer_4" data-name="Layer 4" xmlns="http://www.w3.org/2000/svg" viewBox="0 0 1080 1100"><defs><style>.cls-1{fill:#ff3250;}.cls-2,.cls-6,.cls-8{fill:#280096;}.cls-3,.cls-7{fill:#f8f8f8;}.cls-3,.cls-4,.cls-6,.cls-9{stroke:#280096;}.cls-3,.cls-4,.cls-6,.cls-7,.cls-8{stroke-miterlimit:10;}.cls-3,.cls-4,.cls-6,.cls-7,.cls-8,.cls-9{stroke-width:7px;}.cls-4,.cls-9{fill:none;}.cls-5{fill:#50f096;}.cls-7,.cls-8{stroke:#ff3250;}.cls-9{stroke-linecap:round;stroke-linejoin:round;}</style></defs><circle class="cls-1" cx="328.77" cy="520.66" r="84.83"/><path class="cls-2" d="M272,602.48l-76.72,94.65a14.85,14.85,0,0,1-21,2.06h0a14.86,14.86,0,0,1-2-20.76l77-95Z"/><path class="cls-3" d="M137.86,664.75c-4.93-1-10,2.44-12.15,7s-2,9.87-.9,14.79a46.17,46.17,0,0,0,16.81,26.53c2.6,2,5.52,3.75,8.77,4.13a13.06,13.06,0,0,0,11.87-5.64,17.1,17.1,0,0,0,2.38-13.2"/><path class="cls-3" d="M158.26,639.86c-6.75-1.21-13.7,3.22-16.7,9.38s-2.51,13.59-.06,20,6.68,12,11.12,17.17c4.75,5.59,11.51,11.44,18.52,9.3,6.46-2,9.15-9.84,8.85-16.59"/><path class="cls-3" d="M203.82,627.9a43.09,43.09,0,0,0-19-11.58c-4.23-1.24-8.82-1.8-13-.49-6.44,2-11,8.22-12.38,14.81s-.19,13.49,1.92,19.9c4.1,12.48,13.17,24.93,26.21,26.54a10.31,10.31,0,0,0,5.09-.43,8.85,8.85,0,0,0,4-3.58c2.6-4.12,2.68-9.44,1.33-14.12s-4-8.88-6.58-13"/><path class="cls-4" d="M158.45,716.6c12,11.4,17.24,25.36,22.33,41.1,18.51,57.3,15.55,119.62,3.48,178.61"/><circle class="cls-4" cx="311.65" cy="526.16" r="84.83"/><path class="cls-4" d="M252.67,533.82c-1.57,1.07.84,3.18,2.74,3.35a39,39,0,0,0,30.93-11.46,26.6,26.6,0,0,0,36.59,24.16c4.89-2,9.07-5.36,13-8.87,5.24-4.67,10.28-9.75,13.52-16s4.5-13.77,2-20.31-9.42-11.55-16.36-10.61c-7.23,1-12.31,7.54-15.81,13.94-6.05,11.07-9.94,23.87-7.84,36.31s11.29,24.19,23.69,26.52"/><path class="cls-3" d="M221,729.21c-8.44-4-11.62-14.66-10.71-23.94s4.84-18,6.65-27.14a60.35,60.35,0,0,0-4.23-36.41c-4.95-10.87-13-20-19-30.31-1.64-2.82-3.18-6-2.65-9.22.8-4.79,6.13-7.78,11-7.52s9.21,3,13.13,5.82c23.06,16.94,41.76,39.33,56.42,63.77,32.27,53.79,46.34,119.22,48.38,181.34,1.22,36.93-1.29,73.88-4.85,110.62"/><path class="cls-5" d="M453.82,602c.05-.17,13.62,3.11,14.88,3.4q46.5,10.54,93.18,20.29,23.34,4.86,46.72,9.54,11.68,2.32,23.39,4.61a105.43,105.43,0,0,0,11,1.79c4.16.35,4.14-.58,3.42,3.75a98.48,98.48,0,0,1-2.9,10.73c-8.3,28.82-16.18,57.78-24.14,86.7-3.7,13.44-2.62,9.9-6.33,23.33-.28,1-4,17-4.76,17Q511.6,753.7,412.27,734C427.31,684.19,438,651.51,453.82,602Z"/><path class="cls-3" d="M438.19,1050.93q-1.1-69.06,3.83-138.06c1.48-20.65,3.36-41.28,6.52-61.75A499.76,499.76,0,0,1,474.11,753c2.92-7.84,4.83-15.92,8.22-23.63a142.94,142.94,0,0,1,12.5-22.63c2.71-4,6.16-8.19,11-8.82,8.6-1.12,11.5,6.46,11.78,13.71.34,8.57-3.52,17.22-5.93,25.41-3.22,11-9.74,47.8-14,58.39"/><path class="cls-3" d="M516.64,722c3.56-8.32,9.12-27.9,21.91-24.41,5.86,1.61,8.36,8.62,8.55,14.7a74,74,0,0,1-1.65,15.6c-3.37,18.3-10.72,49.79-16.31,67.54"/><path class="cls-3" d="M543,742.34a49.63,49.63,0,0,1,6.29-18c1.62-2.76,3.69-5.52,6.7-6.6,5.17-1.85,10.94,2.24,12.94,7.36s1.24,10.84.45,16.27l-6.9,47.87"/><path class="cls-3" d="M472,627.11c.06-.17,13.63,3.11,14.88,3.39q46.5,10.56,93.18,20.29,23.34,4.88,46.72,9.54,11.7,2.34,23.39,4.62a102.83,102.83,0,0,0,11,1.78c4.16.36,4.14-.58,3.42,3.76a100.57,100.57,0,0,1-2.89,10.72C653.46,710,645.58,739,637.63,767.92c-3.7,13.44-2.63,9.89-6.33,23.33-.29,1-4,17-4.77,17q-96.72-29.41-196.06-49.13C445.51,709.32,456.18,676.64,472,627.11Z"/><path class="cls-3" d="M596.37,700.64c-12.88-1.17-25.46-4.47-38-7.76l-52-13.65"/><path class="cls-3" d="M564.36,737.61,498.6,722.42"/><path class="cls-3" d="M513.76,838c1.79-11.6,8.46-20,19.07-24.61,6.56-2.87,13.27-5.58,19.16-9.67,11.58-8,17.16-22.65,27.8-32.18,1.72-1.53,3.67-3,6-3.23,3.81-.33,7.08,3.22,7.83,7s-.34,7.6-1.43,11.27c-12.38,41.4-25.78,82.65-33.15,125.22a453.65,453.65,0,0,0-2.83,135.65"/><path class="cls-4" d="M921.55,647.27c-12,11.41-17.24,25.37-22.33,41.11C880.71,745.68,883.67,808,895.74,867"/><path class="cls-3" d="M885.9,587.83,751.48,477.32c-8.31-7.07-14.88-.53-7.84,7.81l109.84,135c9.64,11.42,22.87,19.42,34,20.2,5.66.39,10.6-1,14-4.42h0c3.42-3.42,4.85-8.35,4.47-14C905.25,610.76,897.29,597.51,885.9,587.83Z"/><rect class="cls-6" x="715.56" y="427.94" width="77.01" height="119.8" transform="translate(567.34 -390.65) rotate(45.1)"/><rect class="cls-3" x="705.56" y="448.26" width="97.02" height="79.16" rx="8.56" transform="translate(567.34 -390.65) rotate(45.1)"/><rect class="cls-3" x="744.73" y="420.33" width="119.8" height="34.23" rx="17.11" transform="translate(546.52 -441.28) rotate(45.1)"/><rect class="cls-3" x="643.61" y="521.11" width="119.8" height="34.23" rx="17.11" transform="translate(588.16 -340.01) rotate(45.1)"/><path class="cls-3" d="M859.05,659.89c8.44-4,11.62-14.66,10.71-23.94s-4.84-18-6.65-27.14a60.35,60.35,0,0,1,4.23-36.41c4.95-10.87,13-20,19-30.31,1.64-2.82,3.18-6,2.65-9.22-.8-4.79-6.13-7.78-11-7.52s-9.21,2.94-13.13,5.82c-23.06,16.93-41.76,39.33-56.42,63.77-32.27,53.79-46.34,119.22-48.38,181.33-1.22,36.94,1.29,73.89,4.85,110.63"/><path class="cls-3" d="M942.14,595.42c4.93-1,10,2.45,12.15,7s2,9.87.9,14.78a46.16,46.16,0,0,1-16.81,26.54c-2.6,2-5.52,3.75-8.77,4.13a13.08,13.08,0,0,1-11.87-5.64,17.1,17.1,0,0,1-2.38-13.2"/><path class="cls-3" d="M921.74,570.54c6.75-1.21,13.7,3.21,16.7,9.38s2.51,13.59.06,20-6.68,12-11.12,17.18c-4.75,5.59-11.51,11.44-18.52,9.29-6.46-2-9.15-9.84-8.85-16.58"/><path class="cls-3" d="M876.18,558.58a43.09,43.09,0,0,1,19-11.58c4.23-1.24,8.82-1.8,13-.49,6.44,2,11,8.21,12.38,14.8s.19,13.5-1.92,19.9c-4.1,12.48-13.17,24.94-26.21,26.54a10.19,10.19,0,0,1-5.09-.43,8.89,8.89,0,0,1-4-3.57c-2.6-4.12-2.68-9.44-1.33-14.13s4-8.87,6.58-13"/><line class="cls-7" x1="561.32" y1="568.15" x2="628.72" y2="545.57"/><line class="cls-7" x1="549.38" y1="482.13" x2="618.41" y2="492.21"/><line class="cls-8" x1="601.19" y1="412.92" x2="644.07" y2="452.19"/><path class="cls-5" d="M201.83,137.09a28.07,28.07,0,0,0,5-16.17A25.45,25.45,0,0,0,204,108.25a24.11,24.11,0,0,0-7.64-8.25,44.89,44.89,0,0,0-10.4-5.1,86.14,86.14,0,0,0-11.35-3q-5.72-1.09-10.46-2.06a31.2,31.2,0,0,1-7.64-2.41q-2.89-1.44-2.89-3.92a4.58,4.58,0,0,1,1.17-3,8,8,0,0,1,3.92-2.2,26.74,26.74,0,0,1,7.43-.83,50.29,50.29,0,0,1,13,1.79A73.94,73.94,0,0,1,193,84.58L202.73,61a61.2,61.2,0,0,0-17.07-6.33,90.25,90.25,0,0,0-19.27-2.07q-14.87,0-24.85,4.41t-15,11.77a28.32,28.32,0,0,0-5,16.31A26,26,0,0,0,124.41,98a23.8,23.8,0,0,0,7.63,8.33,44.2,44.2,0,0,0,10.47,5.09,95.92,95.92,0,0,0,11.35,3.1q5.64,1.17,10.4,2.2a30.79,30.79,0,0,1,7.63,2.55c1.93,1,2.89,2.38,2.89,4.13a3.75,3.75,0,0,1-1.23,2.82,8.47,8.47,0,0,1-3.93,1.79,34.46,34.46,0,0,1-7.36.62,59.83,59.83,0,0,1-16.45-2.41,67.35,67.35,0,0,1-15.35-6.4L120,143.49a66.31,66.31,0,0,0,18.58,7.16A98.23,98.23,0,0,0,162,153.4q15,0,24.92-4.47T201.83,137.09Z"/><path class="cls-5" d="M232.12,148.93a35.35,35.35,0,0,0,16.17,3.65,31.56,31.56,0,0,0,15.9-4.2,24.85,24.85,0,0,0,5.44-4.21v7h29.59V75.91H268.11v35.37a21.93,21.93,0,0,1-1.51,8.88,10.26,10.26,0,0,1-3.93,4.82,9.87,9.87,0,0,1-5.16,1.45,8.8,8.8,0,0,1-7.16-3.17q-2.61-3.17-2.61-11.15V75.91H216.63v41.57q0,12.26,4.13,20A26,26,0,0,0,232.12,148.93Z"/><path class="cls-5" d="M344,145a19.58,19.58,0,0,0,4,3.46q6.33,4.13,16.65,4.13a35.74,35.74,0,0,0,18.17-4.75A35.2,35.2,0,0,0,396,134.34q5-8.75,4.95-20.85T396,92.63a34.74,34.74,0,0,0-13.22-13.42,36.19,36.19,0,0,0-18.17-4.68q-9.77,0-16.17,4.2a20.92,20.92,0,0,0-3,2.35v-32H314.36V151.2H344Z"/><path class="cls-5" d="M450,148.45a17.75,17.75,0,0,0,5.78-7.09v9.84h28.91V110.73q0-18.86-10.67-27.53t-30.08-8.67a77.94,77.94,0,0,0-18,2.2A52.66,52.66,0,0,0,410,83.07l9.91,20.51a29,29,0,0,1,8.95-4.34,35.65,35.65,0,0,1,10.32-1.58q7.57,0,10.94,2.89a9.5,9.5,0,0,1,3.18,5.92H440.86q-11.7,0-19.34,2.61t-11.35,7.71a20.45,20.45,0,0,0-3.72,12.39A22,22,0,0,0,419,149.41q6.19,3.17,15.41,3.17Q444.17,152.58,450,148.45Z"/><path class="cls-5" d="M537.29,130.42c-1.34.64-3.88,1-7.64,1a56.61,56.61,0,0,1-13.84-1.79,47.05,47.05,0,0,1-12.45-5l-8.54,20.51A54.37,54.37,0,0,0,510,150.51a87.7,87.7,0,0,0,19,2.07q13.08,0,21.75-3.51t12.94-9.36a21,21,0,0,0,4.26-12.6,21.71,21.71,0,0,0-2.34-10.66,18.44,18.44,0,0,0-6.19-6.68,31.67,31.67,0,0,0-8.47-3.79,65.73,65.73,0,0,0-9.22-1.92c-3.07-.42-5.9-.76-8.46-1a28,28,0,0,1-6.2-1.23c-1.56-.55-2.34-1.38-2.34-2.48,0-.92.71-1.74,2.13-2.48s4.11-1.1,8.06-1.1a50.79,50.79,0,0,1,10.39,1.17,41.19,41.19,0,0,1,11.36,4.34l8.53-20.52A49.2,49.2,0,0,0,551,76a92.19,92.19,0,0,0-16.51-1.51q-12.68,0-21.27,3.51t-12.94,9.29a21.06,21.06,0,0,0-4.34,12.94,21.72,21.72,0,0,0,2.34,10.67,18.55,18.55,0,0,0,6.2,6.68,29.59,29.59,0,0,0,8.53,3.71,74.5,74.5,0,0,0,9.29,1.86c3.08.41,5.9.76,8.47,1a32.42,32.42,0,0,1,6.19,1.17c1.56.51,2.34,1.31,2.34,2.41A2.93,2.93,0,0,1,537.29,130.42Z"/><path class="cls-5" d="M582.09,122q0,15.55,8.67,23.06t24.23,7.5a55.2,55.2,0,0,0,10.53-1,27.52,27.52,0,0,0,8.6-3L626.69,127a12.21,12.21,0,0,1-7,2.06,6.12,6.12,0,0,1-4.61-1.93,7.39,7.39,0,0,1-1.86-5.36v-19h15.42V80H613.2V59H582.09V80H571.77v22.71h10.32Z"/><path class="cls-5" d="M707.14,83.2q-10.67-8.67-30.07-8.67a77.81,77.81,0,0,0-18,2.2,52.66,52.66,0,0,0-15.83,6.34l9.91,20.51a29,29,0,0,1,8.94-4.34,35.72,35.72,0,0,1,10.33-1.58q7.56,0,10.94,2.89a9.54,9.54,0,0,1,3.18,5.92H674q-11.7,0-19.34,2.61t-11.36,7.71a20.51,20.51,0,0,0-3.71,12.39,21.92,21.92,0,0,0,12.52,20.23q6.2,3.17,15.42,3.17,9.76,0,15.56-4.13a17.75,17.75,0,0,0,5.78-7.09v9.84h28.9V110.73Q717.81,91.88,707.14,83.2Z"/><path class="cls-5" d="M790.28,147.83a35.89,35.89,0,0,0,18.1,4.75q10.47,0,16.73-4.13A20,20,0,0,0,829,145v6.18h29.6V49.07H827.52v32a20.69,20.69,0,0,0-2.89-2.32q-6.35-4.2-16.25-4.2a36.34,36.34,0,0,0-18.1,4.68A34.61,34.61,0,0,0,777,92.63q-4.95,8.75-5,20.86t5,20.85A35.07,35.07,0,0,0,790.28,147.83Z"/><path class="cls-5" d="M948.17,92A36.07,36.07,0,0,0,933,78.94a48,48,0,0,0-20.59-4.41,47.19,47.19,0,0,0-21.81,5,38.22,38.22,0,0,0-15.28,13.76,37,37,0,0,0-5.58,20.24,36.53,36.53,0,0,0,5.65,20,38.77,38.77,0,0,0,15.9,14q10.24,5.08,24,5.09,11.28,0,19.34-3.1a35.75,35.75,0,0,0,13.55-9L932,124.08a32.64,32.64,0,0,1-7.09,4.13,22.9,22.9,0,0,1-8.6,1.38,19.8,19.8,0,0,1-8.67-1.72,12.29,12.29,0,0,1-5.51-5.16,14.06,14.06,0,0,1-.88-1.93h52.23c.09-1.1.18-2.31.27-3.65s.14-2.54.14-3.64Q953.88,100.68,948.17,92Z"/><polygon class="cls-5" points="183.87 217.69 212.09 217.69 212.09 288.85 244.57 288.85 244.57 217.69 272.79 217.69 272.79 192.5 183.87 192.5 183.87 217.69"/><path class="cls-5" d="M309.82,221.71v-8.15h-29.6v75.29h31.11V255.4q0-8.94,4.48-12.59t11.49-3.65c1.1,0,2.18.05,3.23.14s2.28.23,3.65.41V212.18q-10.59,0-18.17,4.41A24.34,24.34,0,0,0,309.82,221.71Z"/><path class="cls-5" d="M404,220.85q-10.67-8.67-30.08-8.67a77.94,77.94,0,0,0-18,2.2,52.77,52.77,0,0,0-15.83,6.34L350,241.23a29,29,0,0,1,8.95-4.34,35.7,35.7,0,0,1,10.32-1.58q7.58,0,11,2.89a9.53,9.53,0,0,1,3.17,5.92H370.93q-11.7,0-19.33,2.61t-11.36,7.71a20.45,20.45,0,0,0-3.72,12.39,22,22,0,0,0,12.53,20.23q6.19,3.17,15.41,3.17,9.78,0,15.56-4.13A17.75,17.75,0,0,0,385.8,279v9.84h28.91V248.38Q414.71,229.53,404,220.85Z"/><path class="cls-5" d="M489.45,247.42a31.67,31.67,0,0,0-8.47-3.79,65.44,65.44,0,0,0-9.22-1.92c-3.07-.42-5.9-.76-8.46-1a28,28,0,0,1-6.2-1.23c-1.56-.55-2.34-1.38-2.34-2.48,0-.92.71-1.74,2.14-2.48s4.1-1.1,8.05-1.1a50.79,50.79,0,0,1,10.39,1.17,41.51,41.51,0,0,1,11.36,4.34l8.53-20.51a48.5,48.5,0,0,0-14.18-4.68,91.29,91.29,0,0,0-16.51-1.52q-12.68,0-21.27,3.51T430.33,225A21.06,21.06,0,0,0,426,237.92a21.72,21.72,0,0,0,2.34,10.67,18.55,18.55,0,0,0,6.2,6.68,29.59,29.59,0,0,0,8.53,3.71,74.5,74.5,0,0,0,9.29,1.86c3.08.41,5.9.76,8.47,1A32.42,32.42,0,0,1,467,263c1.56.51,2.34,1.31,2.34,2.41a2.93,2.93,0,0,1-2,2.62q-2,1-7.64,1a56.61,56.61,0,0,1-13.84-1.79,47.05,47.05,0,0,1-12.45-4.95l-8.54,20.51A54.37,54.37,0,0,0,440,288.16a87.77,87.77,0,0,0,19,2.07q13.08,0,21.75-3.51t12.94-9.36a21,21,0,0,0,4.27-12.6,21.82,21.82,0,0,0-2.34-10.66A18.55,18.55,0,0,0,489.45,247.42Z"/><path class="cls-5" d="M549.74,266.69a6.12,6.12,0,0,1-4.61-1.93,7.39,7.39,0,0,1-1.86-5.36v-19h15.42V217.69H543.27V196.63H512.16v21.06H501.84V240.4h10.32v19.27q0,15.56,8.67,23.06t24.23,7.5a55.2,55.2,0,0,0,10.53-1,27.52,27.52,0,0,0,8.6-3l-7.43-21.61A12.21,12.21,0,0,1,549.74,266.69Z"/><path class="cls-5" d="M630.61,216.59A48,48,0,0,0,610,212.18a47.2,47.2,0,0,0-21.82,5,38.28,38.28,0,0,0-15.28,13.76,37.11,37.11,0,0,0-5.57,20.24,36.52,36.52,0,0,0,5.64,20,38.77,38.77,0,0,0,15.9,14q10.26,5.08,24,5.09,11.28,0,19.34-3.1a35.71,35.71,0,0,0,13.56-9l-16.24-16.39a32.87,32.87,0,0,1-7.09,4.13,23,23,0,0,1-8.61,1.38,19.86,19.86,0,0,1-8.67-1.72,12.29,12.29,0,0,1-5.51-5.16,15.37,15.37,0,0,1-.88-1.93h52.23c.09-1.1.18-2.31.27-3.65s.14-2.54.14-3.64q0-12.81-5.71-21.48A36.07,36.07,0,0,0,630.61,216.59Z"/><path class="cls-5" d="M692.21,221.71v-8.15h-29.6v75.29h31.11V255.4q0-8.94,4.47-12.59t11.5-3.65c1.1,0,2.18.05,3.23.14s2.27.23,3.65.41V212.18q-10.61,0-18.17,4.41A24.34,24.34,0,0,0,692.21,221.71Z"/><path class="cls-5" d="M788.56,217.14a54.31,54.31,0,0,0-45.35,0,38.55,38.55,0,0,0-15.49,13.76,39.12,39.12,0,0,0,0,40.47,39,39,0,0,0,15.49,13.83,53.62,53.62,0,0,0,45.35,0,38.41,38.41,0,0,0,15.49-13.83,39.54,39.54,0,0,0,0-40.47A38,38,0,0,0,788.56,217.14Z"/><path class="cls-5" d="M880.65,247.42a31.67,31.67,0,0,0-8.47-3.79,65.44,65.44,0,0,0-9.22-1.92c-3.07-.42-5.9-.76-8.46-1a28,28,0,0,1-6.2-1.23c-1.56-.55-2.34-1.38-2.34-2.48,0-.92.71-1.74,2.14-2.48s4.1-1.1,8-1.1a50.79,50.79,0,0,1,10.39,1.17,41.51,41.51,0,0,1,11.36,4.34l8.53-20.51a48.6,48.6,0,0,0-14.18-4.68,91.29,91.29,0,0,0-16.51-1.52q-12.68,0-21.27,3.51T821.53,225a21.06,21.06,0,0,0-4.34,12.94,21.72,21.72,0,0,0,2.34,10.67,18.55,18.55,0,0,0,6.2,6.68,29.59,29.59,0,0,0,8.53,3.71,74.5,74.5,0,0,0,9.29,1.86c3.08.41,5.9.76,8.47,1a32.42,32.42,0,0,1,6.19,1.17c1.56.51,2.34,1.31,2.34,2.41a2.93,2.93,0,0,1-2,2.62q-2,1-7.64,1a56.61,56.61,0,0,1-13.84-1.79,47.05,47.05,0,0,1-12.45-4.95l-8.54,20.51a54.37,54.37,0,0,0,15.14,5.36,87.77,87.77,0,0,0,19,2.07q13.08,0,21.75-3.51t12.94-9.36a21,21,0,0,0,4.26-12.6,21.82,21.82,0,0,0-2.33-10.66A18.55,18.55,0,0,0,880.65,247.42Z"/><path class="cls-9" d="M208,146.45a28.1,28.1,0,0,0,5-16.18,25.33,25.33,0,0,0-2.89-12.66,24.14,24.14,0,0,0-7.64-8.26,45,45,0,0,0-10.39-5.09,85.15,85.15,0,0,0-11.36-3q-5.72-1.1-10.46-2.06a31.35,31.35,0,0,1-7.64-2.41c-1.93-1-2.89-2.27-2.89-3.93a4.54,4.54,0,0,1,1.17-3,8,8,0,0,1,3.92-2.21,26.84,26.84,0,0,1,7.43-.82,50.29,50.29,0,0,1,13,1.79,73.59,73.59,0,0,1,13.84,5.37l9.77-23.54a60.58,60.58,0,0,0-17.07-6.33A90.25,90.25,0,0,0,172.51,62q-14.87,0-24.85,4.41t-15,11.76a28.32,28.32,0,0,0-5,16.32,26,26,0,0,0,2.89,12.87,23.7,23.7,0,0,0,7.64,8.32,44,44,0,0,0,10.46,5.1A95.85,95.85,0,0,0,160,123.87q5.64,1.17,10.4,2.21a31.06,31.06,0,0,1,7.64,2.54c1.92,1,2.89,2.39,2.89,4.13a3.75,3.75,0,0,1-1.24,2.82,8.47,8.47,0,0,1-3.93,1.79,33.81,33.81,0,0,1-7.36.62,59.83,59.83,0,0,1-16.45-2.41,66.47,66.47,0,0,1-15.35-6.4l-10.46,23.68A66.61,66.61,0,0,0,144.7,160a98.74,98.74,0,0,0,23.4,2.75q15,0,24.92-4.47T208,146.45Z"/><path class="cls-9" d="M238.24,158.29a35.41,35.41,0,0,0,16.17,3.64,31.55,31.55,0,0,0,15.9-4.19,25.48,25.48,0,0,0,5.44-4.21v7h29.59V85.26H274.23v35.38a21.93,21.93,0,0,1-1.51,8.88,10.35,10.35,0,0,1-3.92,4.82,9.92,9.92,0,0,1-5.17,1.44,8.77,8.77,0,0,1-7.15-3.16q-2.63-3.18-2.62-11.15V85.26H222.75v41.57q0,12.26,4.13,20A26,26,0,0,0,238.24,158.29Z"/><path class="cls-9" d="M350.08,154.35a20.21,20.21,0,0,0,4,3.46q6.33,4.13,16.66,4.12a35.89,35.89,0,0,0,18.17-4.74,35.32,35.32,0,0,0,13.21-13.49q5-8.74,5-20.86t-5-20.85A34.72,34.72,0,0,0,388.9,88.57a36.25,36.25,0,0,0-18.17-4.68q-9.78,0-16.18,4.2a21.44,21.44,0,0,0-3,2.34v-32H320.48V160.56h29.6Zm7-44.58a11.77,11.77,0,0,1,16.79,4.88,18,18,0,0,1,1.65,8.19,18.48,18.48,0,0,1-1.65,8.19,11.68,11.68,0,0,1-4.4,5,12.45,12.45,0,0,1-12.39,0,11.63,11.63,0,0,1-4.41-5,18.48,18.48,0,0,1-1.65-8.19,18,18,0,0,1,1.65-8.19A11.73,11.73,0,0,1,357.1,109.77Z"/><path class="cls-9" d="M456.07,157.81a17.85,17.85,0,0,0,5.78-7.1v9.85h28.91V120.09q0-18.86-10.67-27.53T450,83.89a77.4,77.4,0,0,0-18,2.2,53,53,0,0,0-15.83,6.33l9.91,20.51A29,29,0,0,1,435,108.6,35.38,35.38,0,0,1,445.33,107q7.57,0,10.95,2.89a9.59,9.59,0,0,1,3.17,5.92H447q-11.7,0-19.34,2.62t-11.35,7.71a20.4,20.4,0,0,0-3.72,12.38,22,22,0,0,0,12.53,20.24q6.19,3.16,15.41,3.16Q450.29,161.93,456.07,157.81Zm-11.36-25.4c1.52-1.06,3.93-1.58,7.23-1.58h7.71v5.23a9.86,9.86,0,0,1-3.92,5.43,10.63,10.63,0,0,1-5.85,1.72,8,8,0,0,1-5.44-1.72,5.47,5.47,0,0,1-2-4.33A5.41,5.41,0,0,1,444.71,132.41Z"/><path class="cls-9" d="M543.41,139.77q-2,1-7.64,1A56.61,56.61,0,0,1,521.93,139a47.06,47.06,0,0,1-12.45-5l-8.54,20.51a54.68,54.68,0,0,0,15.14,5.37,87.7,87.7,0,0,0,19,2.06q13.08,0,21.75-3.51t12.94-9.36A21,21,0,0,0,574,136.47a21.75,21.75,0,0,0-2.35-10.67,18.41,18.41,0,0,0-6.19-6.67,31.05,31.05,0,0,0-8.47-3.79,66.92,66.92,0,0,0-9.22-1.93c-3.07-.41-5.9-.75-8.46-1a28.52,28.52,0,0,1-6.2-1.24c-1.56-.55-2.34-1.37-2.34-2.48,0-.91.71-1.74,2.14-2.47s4.1-1.1,8-1.1a51.45,51.45,0,0,1,10.39,1.16,41.83,41.83,0,0,1,11.36,4.34l8.53-20.51A48.5,48.5,0,0,0,557.1,85.4a91.28,91.28,0,0,0-16.51-1.51q-12.68,0-21.27,3.51t-12.94,9.29A21,21,0,0,0,502,109.63a21.75,21.75,0,0,0,2.34,10.67,18.44,18.44,0,0,0,6.2,6.67,29.89,29.89,0,0,0,8.53,3.72,78.31,78.31,0,0,0,9.29,1.86q4.62.62,8.47,1a31.66,31.66,0,0,1,6.19,1.17c1.56.5,2.34,1.31,2.34,2.41A2.91,2.91,0,0,1,543.41,139.77Z"/><path class="cls-9" d="M588.21,131.38q0,15.56,8.67,23.05t24.23,7.5a56,56,0,0,0,10.53-1,27.27,27.27,0,0,0,8.6-3l-7.43-21.61a12.14,12.14,0,0,1-7,2.07,6.12,6.12,0,0,1-4.61-1.93,7.4,7.4,0,0,1-1.86-5.37v-19h15.42V89.39H619.32V68.33H588.21V89.39H577.89V112.1h10.32Z"/><path class="cls-9" d="M713.26,92.56q-10.66-8.67-30.07-8.67a77.27,77.27,0,0,0-18,2.2,52.92,52.92,0,0,0-15.83,6.33l9.91,20.51a29.07,29.07,0,0,1,8.94-4.33A35.4,35.4,0,0,1,678.51,107q7.56,0,10.94,2.89a9.6,9.6,0,0,1,3.18,5.92H680.16q-11.7,0-19.34,2.62t-11.36,7.71a20.46,20.46,0,0,0-3.71,12.38,21.95,21.95,0,0,0,12.52,20.24q6.19,3.16,15.42,3.16,9.78,0,15.56-4.12a17.85,17.85,0,0,0,5.78-7.1v9.85h28.9V120.09Q723.93,101.23,713.26,92.56ZM688.9,141.49a10.61,10.61,0,0,1-5.85,1.72,8,8,0,0,1-5.44-1.72,5.46,5.46,0,0,1-2-4.33,5.39,5.39,0,0,1,2.27-4.75c1.51-1.06,3.92-1.58,7.23-1.58h7.7v5.23A9.82,9.82,0,0,1,688.9,141.49Z"/><path class="cls-9" d="M796.4,157.19a36,36,0,0,0,18.1,4.74q10.47,0,16.73-4.12a20,20,0,0,0,3.92-3.43v6.18h29.6V58.42H833.64v32a20.62,20.62,0,0,0-2.89-2.31q-6.33-4.2-16.25-4.2a36.36,36.36,0,0,0-18.1,4.68A34.55,34.55,0,0,0,783.12,102q-4.95,8.74-5,20.85t5,20.86A35.14,35.14,0,0,0,796.4,157.19Zm14.94-42.54a11.78,11.78,0,0,1,21.2,0,18,18,0,0,1,1.65,8.19,18.48,18.48,0,0,1-1.65,8.19,11.63,11.63,0,0,1-4.41,5,12.45,12.45,0,0,1-12.39,0,11.68,11.68,0,0,1-4.4-5,18.48,18.48,0,0,1-1.65-8.19A18,18,0,0,1,811.34,114.65Z"/><path class="cls-9" d="M954.29,101.37a36.16,36.16,0,0,0-15.14-13.08,48.14,48.14,0,0,0-20.58-4.4,47.32,47.32,0,0,0-21.82,5,38.38,38.38,0,0,0-15.28,13.77,37,37,0,0,0-5.58,20.23,36.58,36.58,0,0,0,5.65,20,38.68,38.68,0,0,0,15.9,14q10.24,5.1,24,5.09a54.07,54.07,0,0,0,19.34-3.09,35.81,35.81,0,0,0,13.56-9l-16.25-16.38a32.81,32.81,0,0,1-7.09,4.13,22.9,22.9,0,0,1-8.6,1.38,19.94,19.94,0,0,1-8.67-1.72,12.26,12.26,0,0,1-5.51-5.17,13.42,13.42,0,0,1-.88-1.92h52.23c.09-1.1.18-2.32.27-3.65s.14-2.55.14-3.65Q960,110,954.29,101.37Zm-42.12,5.44a12.52,12.52,0,0,1,6.67-1.72,12.21,12.21,0,0,1,6.61,1.72,12,12,0,0,1,4.34,4.81,14.51,14.51,0,0,1,1.2,3.51H906.68a14,14,0,0,1,1.15-3.51A11.26,11.26,0,0,1,912.17,106.81Z"/><polygon class="cls-9" points="189.99 227.04 218.21 227.04 218.21 298.21 250.69 298.21 250.69 227.04 278.91 227.04 278.91 201.85 189.99 201.85 189.99 227.04"/><path class="cls-9" d="M315.94,231.07v-8.16h-29.6v75.3h31.11V264.76q0-8.94,4.48-12.6t11.49-3.64c1.1,0,2.18,0,3.24.13s2.27.23,3.64.42V221.54q-10.59,0-18.17,4.4A24.38,24.38,0,0,0,315.94,231.07Z"/><path class="cls-9" d="M410.16,230.21q-10.67-8.67-30.08-8.67a77.4,77.4,0,0,0-18,2.2,53,53,0,0,0-15.83,6.33l9.91,20.51a29,29,0,0,1,8.95-4.33,35.38,35.38,0,0,1,10.32-1.59q7.58,0,11,2.89a9.59,9.59,0,0,1,3.17,5.92H377.06q-11.71,0-19.34,2.62t-11.36,7.71a20.4,20.4,0,0,0-3.72,12.38,22,22,0,0,0,12.53,20.24q6.19,3.16,15.42,3.16,9.77,0,15.55-4.12a17.85,17.85,0,0,0,5.78-7.1v9.85h28.91V257.74Q420.83,238.89,410.16,230.21ZM385.8,279.14a10.61,10.61,0,0,1-5.85,1.72,8,8,0,0,1-5.44-1.72,5.47,5.47,0,0,1-2-4.33,5.41,5.41,0,0,1,2.28-4.75c1.51-1.06,3.92-1.58,7.22-1.58h7.71v5.23A9.86,9.86,0,0,1,385.8,279.14Z"/><path class="cls-9" d="M495.57,256.78a31.13,31.13,0,0,0-8.46-3.79,67.37,67.37,0,0,0-9.23-1.93q-4.61-.62-8.46-1a27.94,27.94,0,0,1-6.2-1.24c-1.56-.55-2.34-1.37-2.34-2.48,0-.91.71-1.74,2.14-2.47s4.1-1.1,8.05-1.1a51.37,51.37,0,0,1,10.39,1.16,41.83,41.83,0,0,1,11.36,4.34l8.53-20.51a48.53,48.53,0,0,0-14.17-4.68,91.47,91.47,0,0,0-16.52-1.51q-12.68,0-21.27,3.51t-12.94,9.29a21,21,0,0,0-4.33,12.94A21.75,21.75,0,0,0,434.45,258a18.44,18.44,0,0,0,6.2,6.67,29.89,29.89,0,0,0,8.53,3.72,78.31,78.31,0,0,0,9.29,1.86q4.62.62,8.47,1a31.93,31.93,0,0,1,6.2,1.17c1.55.5,2.34,1.31,2.34,2.41a2.93,2.93,0,0,1-2,2.61q-2,1-7.64,1A56.47,56.47,0,0,1,452,276.6a47,47,0,0,1-12.46-5L431,292.15a54.68,54.68,0,0,0,15.14,5.37,87.76,87.76,0,0,0,19,2.06q13.08,0,21.75-3.51t12.94-9.36a21,21,0,0,0,4.27-12.59,21.75,21.75,0,0,0-2.34-10.67A18.52,18.52,0,0,0,495.57,256.78Z"/><path class="cls-9" d="M555.86,276.05a6.12,6.12,0,0,1-4.61-1.93,7.4,7.4,0,0,1-1.86-5.37v-19h15.42V227H549.39V206H518.28V227H508v22.72h10.32V269q0,15.56,8.67,23.05t24.23,7.5a56,56,0,0,0,10.53-1,27.27,27.27,0,0,0,8.6-3L562.88,274A12.14,12.14,0,0,1,555.86,276.05Z"/><path class="cls-9" d="M636.73,225.94a48.14,48.14,0,0,0-20.58-4.4,47.32,47.32,0,0,0-21.82,5,38.38,38.38,0,0,0-15.28,13.77,37.07,37.07,0,0,0-5.57,20.23,36.55,36.55,0,0,0,5.64,20,38.68,38.68,0,0,0,15.9,14q10.26,5.1,24,5.09a54,54,0,0,0,19.34-3.09,35.73,35.73,0,0,0,13.56-9L635.7,271.09a33,33,0,0,1-7.09,4.13,22.94,22.94,0,0,1-8.6,1.38,20,20,0,0,1-8.68-1.72,12.23,12.23,0,0,1-5.5-5.17,13.42,13.42,0,0,1-.88-1.92h52.22c.09-1.1.18-2.32.28-3.65s.13-2.55.13-3.65q0-12.8-5.71-21.47A36.16,36.16,0,0,0,636.73,225.94Zm-27,18.52a12.56,12.56,0,0,1,6.68-1.72,12.18,12.18,0,0,1,6.6,1.72,11.92,11.92,0,0,1,4.34,4.81,13.7,13.7,0,0,1,1.2,3.51h-24.3a14.45,14.45,0,0,1,1.14-3.51A11.32,11.32,0,0,1,609.75,244.46Z"/><path class="cls-9" d="M698.33,231.07v-8.16h-29.6v75.3h31.11V264.76q0-8.94,4.47-12.6t11.5-3.64c1.1,0,2.18,0,3.23.13s2.28.23,3.65.42V221.54q-10.61,0-18.17,4.4A24.38,24.38,0,0,0,698.33,231.07Z"/><path class="cls-9" d="M794.68,226.49a54.41,54.41,0,0,0-45.35,0,38.64,38.64,0,0,0-15.49,13.77,39.12,39.12,0,0,0,0,40.47,39.08,39.08,0,0,0,15.49,13.83,53.72,53.72,0,0,0,45.35,0,38.48,38.48,0,0,0,15.49-13.83,39.54,39.54,0,0,0,0-40.47A38.06,38.06,0,0,0,794.68,226.49Zm-12.11,42.19a11.62,11.62,0,0,1-4.4,5,12.45,12.45,0,0,1-12.39,0,11.57,11.57,0,0,1-4.41-5,18.48,18.48,0,0,1-1.65-8.19,18,18,0,0,1,1.65-8.19,11.78,11.78,0,0,1,21.2,0,18,18,0,0,1,1.65,8.19A18.48,18.48,0,0,1,782.57,268.68Z"/><path class="cls-9" d="M886.77,256.78a31.13,31.13,0,0,0-8.46-3.79,67.37,67.37,0,0,0-9.23-1.93q-4.61-.62-8.46-1a27.94,27.94,0,0,1-6.2-1.24c-1.56-.55-2.34-1.37-2.34-2.48,0-.91.71-1.74,2.14-2.47s4.1-1.1,8-1.1a51.37,51.37,0,0,1,10.39,1.16A41.83,41.83,0,0,1,884,248.24l8.53-20.51a48.53,48.53,0,0,0-14.17-4.68,91.47,91.47,0,0,0-16.52-1.51q-12.68,0-21.27,3.51t-12.94,9.29a21,21,0,0,0-4.33,12.94A21.75,21.75,0,0,0,825.65,258a18.44,18.44,0,0,0,6.2,6.67,29.89,29.89,0,0,0,8.53,3.72,78.31,78.31,0,0,0,9.29,1.86q4.62.62,8.47,1a31.66,31.66,0,0,1,6.19,1.17c1.56.5,2.34,1.31,2.34,2.41a2.91,2.91,0,0,1-2,2.61q-2,1-7.64,1a56.61,56.61,0,0,1-13.84-1.79,47.06,47.06,0,0,1-12.45-5l-8.54,20.51a54.68,54.68,0,0,0,15.14,5.37,87.76,87.76,0,0,0,19,2.06q13.08,0,21.75-3.51T891,286.71a21,21,0,0,0,4.27-12.59A21.86,21.86,0,0,0,893,263.45,18.52,18.52,0,0,0,886.77,256.78Z"/></svg>