<svg id="Layer_4" data-name="Layer 4" xmlns="http://www.w3.org/2000/svg" viewBox="0 0 589.09 600"><defs><style>.cls-1{fill:none;}.cls-1,.cls-2,.cls-3{stroke:#280096;}.cls-1,.cls-2,.cls-3,.cls-4,.cls-5{stroke-miterlimit:10;stroke-width:7px;}.cls-2,.cls-4{fill:#f8f8f8;}.cls-3,.cls-5{fill:#280096;}.cls-4,.cls-5{stroke:#ff3250;}</style></defs><path class="cls-1" d="M303.88,468.52c11.36-12,25.31-17.33,41-22.47,57.23-18.71,119.56-16,178.6-4.1"/><path class="cls-2" d="M244.32,433.08l-111-134c-7.1-8.29-.58-14.87,7.78-7.86L276.51,400.55c11.46,9.59,19.51,22.79,20.32,33.94.41,5.65-1,10.6-4.37,14h0c-3.4,3.44-8.33,4.88-14,4.52C267.32,452.34,254,444.43,244.32,433.08Z"/><rect class="cls-3" x="105.36" y="241.7" width="77.01" height="119.8" transform="translate(253.75 -13.97) rotate(44.7)"/><rect class="cls-2" x="95.35" y="262.01" width="97.02" height="79.16" rx="8.56" transform="translate(253.75 -13.97) rotate(44.7)"/><rect class="cls-2" x="33.75" y="335.22" width="119.8" height="34.23" rx="17.11" transform="translate(274.92 36.03) rotate(44.7)"/><rect class="cls-2" x="134.18" y="233.74" width="119.8" height="34.23" rx="17.11" transform="translate(232.59 -63.96) rotate(44.7)"/><path class="cls-2" d="M316.28,406c-3.94,8.46-14.62,11.67-23.91,10.79s-18-4.78-27.16-6.56a60.3,60.3,0,0,0-36.39,4.36c-10.85,5-19.95,13.08-30.25,19.13-2.81,1.66-6,3.21-9.2,2.68-4.8-.77-7.8-6.1-7.56-10.95s2.91-9.23,5.77-13.15c16.85-23.12,39.19-41.9,63.57-56.65,53.68-32.45,119.06-46.75,181.17-49,36.93-1.34,73.89,1,110.64,4.47"/><path class="cls-2" d="M252.1,489.29c-.95,4.94,2.48,10,7,12.13s9.88,1.93,14.79.85a46.19,46.19,0,0,0,26.48-16.91c2-2.6,3.72-5.53,4.1-8.78a13.09,13.09,0,0,0-5.69-11.85,17.07,17.07,0,0,0-13.21-2.33"/><path class="cls-2" d="M227.15,469c-1.19,6.75,3.26,13.69,9.44,16.66s13.6,2.47,20,0,11.93-6.73,17.14-11.19c5.57-4.76,11.4-11.54,9.23-18.55-2-6.45-9.87-9.12-16.62-8.79"/><path class="cls-2" d="M215,423.46a43.15,43.15,0,0,0-11.52,19.08c-1.22,4.23-1.76,8.82-.44,13,2,6.43,8.25,10.93,14.85,12.33s13.49.14,19.89-2c12.47-4.14,24.89-13.26,26.45-26.3a10.31,10.31,0,0,0-.45-5.09,8.73,8.73,0,0,0-3.59-4c-4.13-2.59-9.45-2.65-14.13-1.28s-8.86,4-13,6.62"/><line class="cls-4" x1="223.5" y1="108.56" x2="201.17" y2="176.04"/><line class="cls-4" x1="137.44" y1="96.93" x2="147.77" y2="165.93"/><line class="cls-5" x1="68.42" y1="148.97" x2="107.83" y2="191.72"/></svg>